<svg version="1.1" preserveAspectRatio="none" xmlns="http://www.w3.org/2000/svg" width="500" height="500" viewBox="0 0 500 500"><rect width="100%" height="100%" fill="#F7F0E8" fill-opacity="1"/><svg viewBox="-48.8868 129.5877 546.2068 66" width="333" height="40.23750711269065" x="83.5px" y="229.8812px" xmlns="http://www.w3.org/2000/svg" xmlns:xlink="http://www.w3.org/1999/xlink" preserveAspectRatio="none"><defs></defs><style>.companyName {fill:#883F39;fill-opacity:1;}.icon1 {fill:#F3C1BC;fill-opacity:1;}.icon2 {fill:#C4AFAD;fill-opacity:1;}.icon3 {fill:#B28A87;fill-opacity:1;}.icon3-str {stroke:#B28A87;stroke-opacity:1;}</style><g opacity="1" transform="rotate(0 -48.8868 129.5877)">
<svg width="128.7805" height="66" x="-48.8868" y="129.5877" version="1.1" preserveAspectRatio="none" viewBox="20 59 160 82">
  <g transform="matrix(1 0 0 1 0 0)"><g><path d="M96.5 141H68.7l-16.4-29 13.9-24.6L96.5 141z" data-color="1" class="icon1"></path><path d="M48.7 141H20l46.9-82h28.7l-46.9 82z" data-color="2" class="icon2"></path><path d="M97.6 141H68.9l46.9-82h28.7l-46.9 82z" data-color="3" class="icon3"></path><path d="M180 141h-28.8l-16.9-29 14.4-24.6L180 141z" data-color="1" class="icon1"></path></g></g>
</svg>
</g><g opacity="1" transform="rotate(0 99.8937 144.5877)">
<svg width="397.4263" height="36" x="99.8937" y="144.5877" version="1.1" preserveAspectRatio="none" viewBox="4 -41.8 468.52 42.44">
  <g transform="matrix(1 0 0 1 0 0)" class="companyName"><path id="id-D6z1nYkh18" d="M34.08-31.24Q34.60-31.24 34.92-30.90Q35.24-30.56 35.24-30.04L35.24-30.04L35.24-1.20Q35.24-0.68 34.92-0.34Q34.60 0 34.08 0L34.08 0Q33.56 0 33.20-0.34Q32.84-0.68 32.84-1.20L32.84-1.20L32.84-25.72L20.68-0.96Q20.40-0.40 19.64-0.40L19.64-0.40Q18.92-0.40 18.52-1.16L18.52-1.16L6.40-25.36L6.40-1.20Q6.40-0.68 6.06-0.34Q5.72 0 5.20 0L5.20 0Q4.68 0 4.34-0.34Q4-0.68 4-1.20L4-1.20L4-30.04Q4-30.56 4.34-30.90Q4.68-31.24 5.20-31.24L5.20-31.24Q6-31.24 6.28-30.64L6.28-30.64L19.72-4.08L33-30.64Q33.36-31.24 34.08-31.24L34.08-31.24Z M66.72-1.72Q66.84-1.48 66.84-1.20L66.84-1.20Q66.84-0.72 66.48-0.36Q66.12 0 65.64 0L65.64 0Q64.84 0 64.52-0.76L64.52-0.76L61.56-7.84L45.28-7.84L42.32-0.76Q42.04 0 41.20 0L41.20 0Q40.64 0 40.32-0.36Q40-0.72 40-1.20L40-1.20Q40-1.48 40.12-1.72L40.12-1.72L52.24-30.40Q52.56-31.24 53.40-31.24L53.40-31.24Q54.20-31.24 54.56-30.40L54.56-30.40L66.72-1.72ZM46.20-10L60.64-10L53.40-27.28L46.20-10Z M88.48-31.24Q88.96-31.24 89.26-30.94Q89.56-30.64 89.56-30.16L89.56-30.16Q89.56-29.68 89.26-29.38Q88.96-29.08 88.48-29.08L88.48-29.08L78.36-29.08L78.36-1.20Q78.36-0.68 78.02-0.34Q77.68 0 77.16 0L77.16 0Q76.64 0 76.30-0.34Q75.96-0.68 75.96-1.20L75.96-1.20L75.96-29.08L65.84-29.08Q65.36-29.08 65.06-29.38Q64.76-29.68 64.76-30.16L64.76-30.16Q64.76-30.64 65.06-30.94Q65.36-31.24 65.84-31.24L65.84-31.24L88.48-31.24Z M114.60-2.40Q115.08-2.40 115.44-2.04Q115.80-1.68 115.80-1.20L115.80-1.20Q115.80-0.68 115.44-0.34Q115.08 0 114.60 0L114.60 0L95.36 0Q94.84 0 94.50-0.34Q94.16-0.68 94.16-1.20L94.16-1.20L94.16-30.04Q94.16-30.56 94.50-30.90Q94.84-31.24 95.36-31.24L95.36-31.24L114.60-31.24Q115.08-31.24 115.44-30.90Q115.80-30.56 115.80-30.04L115.80-30.04Q115.80-29.56 115.44-29.20Q115.08-28.84 114.60-28.84L114.60-28.84L96.56-28.84L96.56-16.84L109.80-16.84Q110.32-16.84 110.66-16.50Q111-16.16 111-15.64L111-15.64Q111-15.12 110.66-14.76Q110.32-14.40 109.80-14.40L109.80-14.40L96.56-14.40L96.56-2.40L114.60-2.40Z M140.60-1.84Q140.92-1.28 140.92-0.92L140.92-0.92Q140.92-0.48 140.58-0.24Q140.24 0 139.60 0L139.60 0Q139.20 0 138.96-0.16Q138.72-0.32 138.52-0.64L138.52-0.64L131.16-12.40L130.44-12.40L124-12.40L124-1.20Q124-0.68 123.68-0.34Q123.36 0 122.80 0L122.80 0Q122.28 0 121.94-0.34Q121.60-0.68 121.60-1.20L121.60-1.20L121.60-30.04Q121.60-30.60 121.94-30.92Q122.28-31.24 122.80-31.24L122.80-31.24L130.44-31.24Q133.32-31.24 135.60-30.04Q137.88-28.84 139.16-26.68Q140.44-24.52 140.44-21.76L140.44-21.76Q140.44-18.48 138.62-16.10Q136.80-13.72 133.72-12.84L133.72-12.84L140.60-1.84ZM124-14.80L130.44-14.80Q132.64-14.80 134.36-15.68Q136.08-16.56 137.06-18.16Q138.04-19.76 138.04-21.76L138.04-21.76Q138.04-23.80 137.06-25.42Q136.08-27.04 134.36-27.94Q132.64-28.84 130.44-28.84L130.44-28.84L124-28.84L124-14.80Z M145.92-30.04Q145.92-30.56 146.26-30.90Q146.60-31.24 147.12-31.24L147.12-31.24Q147.64-31.24 147.98-30.90Q148.32-30.56 148.32-30.04L148.32-30.04L148.32-1.20Q148.32-0.68 147.98-0.34Q147.64 0 147.12 0L147.12 0Q146.60 0 146.26-0.34Q145.92-0.68 145.92-1.20L145.92-1.20L145.92-30.04Z M179.80-1.72Q179.92-1.48 179.92-1.20L179.92-1.20Q179.92-0.72 179.56-0.36Q179.20 0 178.72 0L178.72 0Q177.92 0 177.60-0.76L177.60-0.76L174.64-7.84L158.36-7.84L155.40-0.76Q155.12 0 154.28 0L154.28 0Q153.72 0 153.40-0.36Q153.08-0.72 153.08-1.20L153.08-1.20Q153.08-1.48 153.20-1.72L153.20-1.72L165.32-30.40Q165.64-31.24 166.48-31.24L166.48-31.24Q167.28-31.24 167.64-30.40L167.64-30.40L179.80-1.72ZM159.28-10L173.72-10L166.48-27.28L159.28-10Z M203.28-2.16Q203.80-2.16 204.14-1.86Q204.48-1.56 204.48-1.08L204.48-1.08Q204.48-0.60 204.14-0.30Q203.80 0 203.28 0L203.28 0L185.64 0Q185.16 0 184.80-0.34Q184.44-0.68 184.44-1.20L184.44-1.20L184.44-30.04Q184.44-30.56 184.80-30.90Q185.16-31.24 185.64-31.24L185.64-31.24Q186.16-31.24 186.50-30.90Q186.84-30.56 186.84-30.04L186.84-30.04L186.84-2.16L203.28-2.16Z M229.92-2.40Q230.40-2.40 230.76-2.04Q231.12-1.68 231.12-1.20L231.12-1.20Q231.12-0.68 230.76-0.34Q230.40 0 229.92 0L229.92 0L210.68 0Q210.16 0 209.82-0.34Q209.48-0.68 209.48-1.20L209.48-1.20L209.48-30.04Q209.48-30.56 209.82-30.90Q210.16-31.24 210.68-31.24L210.68-31.24L229.92-31.24Q230.40-31.24 230.76-30.90Q231.12-30.56 231.12-30.04L231.12-30.04Q231.12-29.56 230.76-29.20Q230.40-28.84 229.92-28.84L229.92-28.84L211.88-28.84L211.88-16.84L225.12-16.84Q225.64-16.84 225.98-16.50Q226.32-16.16 226.32-15.64L226.32-15.64Q226.32-15.12 225.98-14.76Q225.64-14.40 225.12-14.40L225.12-14.40L211.88-14.40L211.88-2.40L229.92-2.40Z M245.92-31.64Q248.84-31.64 251.28-30.24Q253.72-28.84 254.88-26.88L254.88-26.88Q255.04-26.60 255.04-26.24L255.04-26.24Q255.04-25.92 254.86-25.66Q254.68-25.40 254.36-25.24L254.36-25.24Q254.20-25.16 253.88-25.16L253.88-25.16Q253.16-25.16 252.76-25.76L252.76-25.76Q250.40-29.24 245.92-29.24L245.92-29.24Q242.60-29.24 240.74-27.74Q238.88-26.24 238.88-23.56L238.88-23.56Q238.88-21.32 240.72-19.80Q242.56-18.28 246.40-17.64L246.40-17.64Q251.44-16.80 253.76-14.54Q256.08-12.28 256.08-8.60L256.08-8.60Q256.08-5.84 254.86-3.80Q253.64-1.76 251.42-0.68Q249.20 0.40 246.28 0.40L246.28 0.40Q242.52 0.40 239.76-1.14Q237-2.68 235.64-5.36L235.64-5.36Q235.52-5.60 235.52-5.84L235.52-5.84Q235.52-6.32 235.86-6.64Q236.20-6.96 236.76-6.96L236.76-6.96Q237.56-6.96 237.92-6.20L237.92-6.20Q239-4.20 241.14-3.10Q243.28-2 246.28-2L246.28-2Q249.72-2 251.70-3.72Q253.68-5.44 253.68-8.60L253.68-8.60Q253.68-11.32 251.74-13.10Q249.80-14.88 246-15.40L246-15.40Q241.56-16.04 239.02-18.30Q236.48-20.56 236.48-23.80L236.48-23.80Q236.48-26.12 237.66-27.90Q238.84-29.68 240.98-30.66Q243.12-31.64 245.92-31.64L245.92-31.64Z M296.64-31.24Q297.12-31.24 297.40-30.92Q297.68-30.60 297.68-30.08L297.68-30.08Q297.68-29.64 297.52-29.28L297.52-29.28L285.56-0.76Q285.20 0 284.48 0L284.48 0Q284.08 0 283.82-0.18Q283.56-0.36 283.40-0.76L283.40-0.76L271.40-29.28Q271.20-29.80 271.20-30.12L271.20-30.12Q271.20-30.64 271.56-30.94Q271.92-31.24 272.44-31.24L272.44-31.24Q272.84-31.24 273.12-31.04Q273.40-30.84 273.60-30.40L273.60-30.40L284.52-4.24L295.32-30.24Q295.52-30.76 295.84-31Q296.16-31.24 296.64-31.24L296.64-31.24Z M323.16-1.72Q323.28-1.48 323.28-1.20L323.28-1.20Q323.28-0.72 322.92-0.36Q322.56 0 322.08 0L322.08 0Q321.28 0 320.96-0.76L320.96-0.76L318-7.84L301.72-7.84L298.76-0.76Q298.48 0 297.64 0L297.64 0Q297.08 0 296.76-0.36Q296.44-0.72 296.44-1.20L296.44-1.20Q296.44-1.48 296.56-1.72L296.56-1.72L308.68-30.40Q309-31.24 309.84-31.24L309.84-31.24Q310.64-31.24 311-30.40L311-30.40L323.16-1.72ZM302.64-10L317.08-10L309.84-27.28L302.64-10ZM313.12-41.44Q313.48-41.80 314-41.80L314-41.80Q314.52-41.80 314.88-41.44Q315.24-41.08 315.24-40.56L315.24-40.56Q315.24-40.08 314.88-39.72L314.88-39.72L309.96-34.80Q309.64-34.48 309.16-34.48L309.16-34.48Q308.64-34.48 308.28-34.84Q307.92-35.20 307.92-35.72L307.92-35.72Q307.92-36.16 308.20-36.52L308.20-36.52L313.12-41.44Z M336.80-31.64Q339.72-31.64 342.16-30.24Q344.60-28.84 345.76-26.88L345.76-26.88Q345.92-26.60 345.92-26.24L345.92-26.24Q345.92-25.92 345.74-25.66Q345.56-25.40 345.24-25.24L345.24-25.24Q345.08-25.16 344.76-25.16L344.76-25.16Q344.04-25.16 343.64-25.76L343.64-25.76Q341.28-29.24 336.80-29.24L336.80-29.24Q333.48-29.24 331.62-27.74Q329.76-26.24 329.76-23.56L329.76-23.56Q329.76-21.32 331.60-19.80Q333.44-18.28 337.28-17.64L337.28-17.64Q342.32-16.80 344.64-14.54Q346.96-12.28 346.96-8.60L346.96-8.60Q346.96-5.84 345.74-3.80Q344.52-1.76 342.30-0.68Q340.08 0.40 337.16 0.40L337.16 0.40Q333.40 0.40 330.64-1.14Q327.88-2.68 326.52-5.36L326.52-5.36Q326.40-5.60 326.40-5.84L326.40-5.84Q326.40-6.32 326.74-6.64Q327.08-6.96 327.64-6.96L327.64-6.96Q328.44-6.96 328.80-6.20L328.80-6.20Q329.88-4.20 332.02-3.10Q334.16-2 337.16-2L337.16-2Q340.60-2 342.58-3.72Q344.56-5.44 344.56-8.60L344.56-8.60Q344.56-11.32 342.62-13.10Q340.68-14.88 336.88-15.40L336.88-15.40Q332.44-16.04 329.90-18.30Q327.36-20.56 327.36-23.80L327.36-23.80Q327.36-26.12 328.54-27.90Q329.72-29.68 331.86-30.66Q334-31.64 336.80-31.64L336.80-31.64Z M379.60-4.36L382-2Q382.36-1.64 382.36-1.20L382.36-1.20Q382.36-0.72 382-0.36L382-0.36Q381.64 0 381.20 0L381.20 0Q380.72 0 380.36-0.36L380.36-0.36L377.88-2.84Q375.84-1.28 373.32-0.44Q370.80 0.40 368 0.40L368 0.40Q363.48 0.40 359.82-1.70Q356.16-3.80 354.06-7.46Q351.96-11.12 351.96-15.64L351.96-15.64Q351.96-20.12 354.06-23.78Q356.16-27.44 359.82-29.54Q363.48-31.64 368-31.64L368-31.64Q372.48-31.64 376.14-29.54Q379.80-27.44 381.90-23.78Q384-20.12 384-15.64L384-15.64Q384-12.32 382.86-9.44Q381.72-6.56 379.60-4.36L379.60-4.36ZM368-2Q372.64-2 376.12-4.56L376.12-4.56L371.48-9.16Q371.12-9.52 371.12-10L371.12-10Q371.12-10.44 371.48-10.80L371.48-10.80Q371.84-11.16 372.32-11.16L372.32-11.16Q372.76-11.16 373.12-10.80L373.12-10.80L377.88-6.08Q379.64-7.96 380.62-10.40Q381.60-12.84 381.60-15.64L381.60-15.64Q381.60-19.44 379.82-22.56Q378.04-25.68 374.92-27.46Q371.80-29.24 368-29.24L368-29.24Q364.16-29.24 361.04-27.46Q357.92-25.68 356.14-22.56Q354.36-19.44 354.36-15.64L354.36-15.64Q354.36-11.80 356.14-8.68Q357.92-5.56 361.04-3.78Q364.16-2 368-2L368-2Z M390.40-30.04Q390.40-30.60 390.74-30.92Q391.08-31.24 391.60-31.24L391.60-31.24Q392.16-31.24 392.48-30.92Q392.80-30.60 392.80-30.04L392.80-30.04L392.80-10.20Q392.80-7.76 394.02-5.84Q395.24-3.92 397.42-2.84Q399.60-1.76 402.40-1.76L402.40-1.76Q405.20-1.76 407.38-2.84Q409.56-3.92 410.80-5.84Q412.04-7.76 412.04-10.20L412.04-10.20L412.04-30.04Q412.04-30.60 412.38-30.92Q412.72-31.24 413.24-31.24L413.24-31.24Q413.80-31.24 414.12-30.92Q414.44-30.60 414.44-30.04L414.44-30.04L414.44-10.20Q414.44-7.04 412.90-4.58Q411.36-2.12 408.62-0.74Q405.88 0.64 402.40 0.64L402.40 0.64Q398.92 0.64 396.18-0.74Q393.44-2.12 391.92-4.58Q390.40-7.04 390.40-10.20L390.40-10.20L390.40-30.04Z M442.88-2.40Q443.36-2.40 443.72-2.04Q444.08-1.68 444.08-1.20L444.08-1.20Q444.08-0.68 443.72-0.34Q443.36 0 442.88 0L442.88 0L423.64 0Q423.12 0 422.78-0.34Q422.44-0.68 422.44-1.20L422.44-1.20L422.44-30.04Q422.44-30.56 422.78-30.90Q423.12-31.24 423.64-31.24L423.64-31.24L442.88-31.24Q443.36-31.24 443.72-30.90Q444.08-30.56 444.08-30.04L444.08-30.04Q444.08-29.56 443.72-29.20Q443.36-28.84 442.88-28.84L442.88-28.84L424.84-28.84L424.84-16.84L438.08-16.84Q438.60-16.84 438.94-16.50Q439.28-16.16 439.28-15.64L439.28-15.64Q439.28-15.12 438.94-14.76Q438.60-14.40 438.08-14.40L438.08-14.40L424.84-14.40L424.84-2.40L442.88-2.40Z M448.88-29.08Q448.32-29.08 448-29.34Q447.68-29.60 447.68-30.16L447.68-30.16Q447.68-30.60 448.02-30.92Q448.36-31.24 448.88-31.24L448.88-31.24L471.32-31.24Q471.84-31.24 472.18-30.86Q472.52-30.48 472.52-30L472.52-30Q472.52-29.64 472.32-29.36L472.32-29.36L450.76-2.16L471.32-2.16Q471.84-2.16 472.18-1.88Q472.52-1.60 472.52-1.08L472.52-1.08Q472.52-0.64 472.16-0.32Q471.80 0 471.32 0L471.32 0L448.88 0Q448.36 0 448.02-0.36Q447.68-0.72 447.68-1.20L447.68-1.20Q447.68-1.64 447.96-1.96L447.96-1.96L469.36-29.08L448.88-29.08Z"/></g>
</svg>
</g></svg></svg>